<svg xmlns="http://www.w3.org/2000/svg" viewBox="0 0 100 160" width="100" height="160">
  <rect width="100" height="160" fill="#ffffff" stroke="#e3e8f0" stroke-width="1.5" rx="6"/>
  <!-- логотип сверху -->
  <rect x="38" y="14" width="24" height="24" rx="4" fill="#0c3fe9"/>
  <text x="50" y="32" font-family="Inter, Arial, sans-serif" font-size="11" font-weight="700" fill="#ffffff" text-anchor="middle">Q</text>
  <!-- QR имитация -->
  <g transform="translate(22, 50)">
    <rect width="56" height="56" fill="#0f172a" rx="2"/>
    <g fill="#ffffff">
      <rect x="6" y="6" width="14" height="14"/>
      <rect x="36" y="6" width="14" height="14"/>
      <rect x="6" y="36" width="14" height="14"/>
      <rect x="9" y="9" width="8" height="8" fill="#0f172a"/>
      <rect x="39" y="9" width="8" height="8" fill="#0f172a"/>
      <rect x="9" y="39" width="8" height="8" fill="#0f172a"/>
      <rect x="24" y="24" width="4" height="4"/>
      <rect x="32" y="28" width="4" height="4"/>
      <rect x="28" y="36" width="4" height="4"/>
      <rect x="36" y="32" width="4" height="4"/>
      <rect x="40" y="40" width="4" height="4"/>
    </g>
  </g>
  <!-- подпись -->
  <text x="50" y="128" font-family="Inter, Arial, sans-serif" font-size="10" font-weight="600" fill="#0f172a" text-anchor="middle">Инструкция</text>
</svg>
